<svg width="68" height="68" fill="none" xmlns="http://www.w3.org/2000/svg"><g filter="url(#filter0_d)"><path d="M4 40.385l30-17.308 30 17.308-30 17.307L4 40.385z" fill="gray"/><path d="M4 40.385l30 17.307V60L4 42.692v-2.307z" fill="#999"/><path d="M64 40.385L34 57.692V60l30-17.308v-2.307z" fill="#4D4D4D"/><path d="M34 2.308v23.077L6 41.538V18.462L34 2.308z" fill="#B3B3B3"/><path d="M34 2.308v23.077l28 16.153V18.462L34 2.308zM4 40.385l30 17.307V34.615L4 17.308v23.077z" fill="#F2F2F2"/><path d="M64 40.385V17.308L34 34.615v23.077l30-17.307zM38 15v15l-6 3.462v-15L38 15z" fill="#B3B3B3"/><path d="M34 0L4 17.308l30 17.307 30-17.307L34 0zm0 32.308l-26-15 9-5.193 17 9.808 2-1.154-4-2.307L38 15l-2-1.154-6 3.462-11-6.347 15-8.653 11 6.346-4 2.307 2 1.154 4-2.307 13 7.5-26 15z" fill="#00459A"/><path d="M17 12.115l17 9.808v10.385L17 22.5V12.115z" fill="#F2F2F2"/><path d="M41 10.961V28.27l2-1.154v-15l-2-1.154z" fill="#999"/><path d="M43 27.115l4-2.307v-15l-4 2.307v15z" fill="#B3B3B3"/><path d="M36 31.154V20.769l-2 1.154v10.385l2-1.154z" fill="#999"/><path d="M46 32.308l-6 3.461v10.385l6-3.462V32.308z" fill="gray"/><path d="M44 33.462v8.076l2 1.154V32.308l-2 1.154z" fill="#4D4D4D"/><path d="M40 46.154l6-3.462-2-1.154-4 2.308v2.308z" fill="#E6E6E6"/><path d="M58 25.385l-6 3.461v10.385l6-3.462V25.385z" fill="#999"/><path d="M56 26.538v8.077l2 1.154V25.385l-2 1.153z" fill="#4D4D4D"/><path d="M52 39.23l6-3.46-2-1.155-4 2.308v2.308z" fill="#E6E6E6"/><path d="M52 28.846l4-2.308v8.077l-2 1.154-2-1.154v-5.769z" fill="#F2F2F2"/><path d="M4 17.308l2 1.154v23.076l-2-1.153V17.308z" fill="#E6E6E6"/></g><defs><filter id="filter0_d" x="0" y="0" width="68" height="68" filterUnits="userSpaceOnUse" color-interpolation-filters="sRGB"><feFlood flood-opacity="0" result="BackgroundImageFix"/><feColorMatrix in="SourceAlpha" values="0 0 0 0 0 0 0 0 0 0 0 0 0 0 0 0 0 0 127 0"/><feOffset dy="4"/><feGaussianBlur stdDeviation="2"/><feColorMatrix values="0 0 0 0 0 0 0 0 0 0 0 0 0 0 0 0 0 0 0.25 0"/><feBlend in2="BackgroundImageFix" result="effect1_dropShadow"/><feBlend in="SourceGraphic" in2="effect1_dropShadow" result="shape"/></filter></defs></svg>